<svg xmlns="http://www.w3.org/2000/svg" viewBox="0 0 468.76 159.65"><defs><style>.cls-1{isolation:isolate;}.cls-2{mix-blend-mode:multiply;}.cls-3{fill:#f1e7c5;}</style></defs><title>benefits_drawing</title><g class="cls-1"><g id="Layer_2" data-name="Layer 2"><g id="Layer_1-2" data-name="Layer 1"><g id="PzuvrA" class="cls-2"><path class="cls-3" d="M181.41,37.68c2.7-1,5.42-2,8.08-3.11,4-1.67,8-3.37,12-5.16,3.45-1.56,6.82-3.3,10.24-4.92a42.59,42.59,0,0,1,4.63-2c2.59-.88,5.21-1.66,7.85-2.36,1.54-.41,3.15-.54,4.72-.85a103.93,103.93,0,0,1,19.28-1.78c3.59,0,7.2-.34,10.77-.16,5.68.29,11.37.65,17,1.44a95.14,95.14,0,0,1,12.75,3c4.06,1.18,8,2.69,12,4.11,3.63,1.29,7.28,2.55,10.84,4,3.26,1.35,6.43,2.93,9.62,4.44,2,1,4,2,6,3a2.94,2.94,0,0,1,1,.74,15.49,15.49,0,0,1,1.08,1.75c-.78.38-1.38,1.2-2.48.8-3.85-1.4-7.69-2.85-11.6-4.09a88,88,0,0,0-10.16-2.71c-4.08-.77-8.23-1.15-12.35-1.66a2.82,2.82,0,0,0-1.69.42c1.63.43,3.27.83,4.9,1.3,4.45,1.26,8.93,2.43,13.32,3.87a89.19,89.19,0,0,1,10.35,4.06c3,1.44,5.8,3.36,8.7,5,.79.46,1.6.88,2.42,1.27a46.4,46.4,0,0,1,11.14,7.92c3.83,3.51,7.46,7.25,10.94,11.11,2.8,3.11,5.3,6.49,7.81,9.85,1.77,2.37,3.41,4.86,4.95,7.38a25.27,25.27,0,0,1,1.65,3.93c1.1,2.8,2.2,5.6,3.26,8.41a6.66,6.66,0,0,1,.18,1.56l-.46.21A20.12,20.12,0,0,1,368.41,96a38.19,38.19,0,0,0-6.88-9.56c-1.08-1.12-1.89-2.49-2.92-3.67a41.09,41.09,0,0,1-3.74-4.09,16.41,16.41,0,0,0-4.1-3.88,16.37,16.37,0,0,1-1.44-1.72A29.87,29.87,0,0,0,347.09,71a105.1,105.1,0,0,0-18-12c-.64-.35-1.23-.8-1.84-1.2l-.36.62A22,22,0,0,0,329,61a59.91,59.91,0,0,1,8.63,11.23q3.66,5.68,7.43,11.31c2.17,3.24,4.28,6.53,6.67,9.6,2.2,2.82,4.08,5.92,7.13,8.08,1.79,1.26,3.12,3.16,4.67,4.75.82.83,1.74,1.57,2.51,2.44a4.11,4.11,0,0,1,.55,1.41c-.49.09-1.08.41-1.46.24-2.18-.94-4.3-2-6.45-3-1.13-.52-2.31-1-3.44-1.47-.69-.33-1.32-.79-2-1.14-1.7-.88-3.63-1.48-5.09-2.65a73.57,73.57,0,0,1-6.2-6c-1.82-1.88-3.63-3.8-5.31-5.8a76.22,76.22,0,0,1-5.63-7.2c-1.82-2.75-3.33-5.71-4.87-8.63-1.2-2.25-2.19-4.61-3.38-6.87-.6-1.14-1.62-2.07-2.13-3.24A30.17,30.17,0,0,0,315,55.74a11.33,11.33,0,0,0-7.18-3.5c-3.16-.42-6.3-1-9.46-1.49-2.33-.33-4.68-.56-7-.83l-.17.45c.9.74,1.78,1.52,2.7,2.23,1.56,1.22,3.23,2.3,4.7,3.61a61.74,61.74,0,0,1,4.36,4.5c1.83,2,3.63,4.05,5.37,6.14,3.18,3.83,6.28,7.72,9.44,11.56,1,1.27,2.17,2.45,3.26,3.68a86.7,86.7,0,0,0,6.13,6.83c2.82,2.56,6,4.74,9,7.13a16.49,16.49,0,0,1,2.58,2.5c.68.85.24,1.64-.87,1.58a7.48,7.48,0,0,1-2.64-.61c-1.2-.55-2.26-1.41-3.45-2a61.35,61.35,0,0,0-5.81-2.42c-3.08-1-6.41-1.38-9.24-3.13-3.49-2.15-6.95-4.35-10.41-6.55-5.08-3.24-8.66-8-12.68-12.36-1.76-1.9-3.5-3.83-5.17-5.81-.87-1-1.57-2.22-2.35-3.34a.6.6,0,0,0-.06-.11A97.55,97.55,0,0,0,279.39,56a27.65,27.65,0,0,0-6.61-4.67,34.82,34.82,0,0,0-6.69-2.14c-5.24-1.45-10.49-2.85-15.45-5.21-1.92-.92-3.84-2.25-6.14-2.09a33.8,33.8,0,0,0-5.11.72c-2,.47-4,1.23-6.09,1.71-3.57.85-7.17,1.62-10.77,2.33-1.95.38-3.94.56-6.35.9.8.51,1.26.85,1.76,1.11,3.06,1.63,6.22,3.08,9.15,4.91a75.88,75.88,0,0,1,7.58,5.67c2.78,2.28,5.48,4.65,8.12,7.08a37.25,37.25,0,0,1,2.64,3.19c1.66,1.89,3.41,3.69,5,5.63,1.1,1.32,2,2.83,3,4.22,3.29,4.41,6.52,8.86,9.92,13.19,2.4,3.06,4.95,6,7.57,8.9,3.56,3.92,7.25,7.72,10.88,11.59a27.7,27.7,0,0,0,7.48,5.21c.87.47,1.72,1,2.54,1.51a4.34,4.34,0,0,1,.76.88c-.37.26-.75.74-1.12.74-1.37,0-2.95.23-4.09-.34-3.15-1.58-6.63-1.44-9.89-2.36-2.52-.71-5-1.46-7.53-2.29a54.86,54.86,0,0,1-5.23-2.1c-2-.92-4-1.91-6-3a75.55,75.55,0,0,1-6.87-4.11c-2.29-1.61-4.76-2.94-6.62-5.24-1.48-1.82-3.7-3-5.52-4.58-1.18-1-2.24-2.16-3.32-3.27-1.66-1.7-3.32-3.38-4.93-5.12-2-2.22-4-4.5-6.07-6.74-3.22-3.54-6.47-7-9.7-10.59-1.42-1.56-2.75-3.22-4.23-4.73-2.66-2.7-5.3-5.44-8.13-8-2.5-2.22-5.25-4.17-7.9-6.23a15.1,15.1,0,0,0-6.58-2.58c-1-.19-1.81-.73-2.76-.93-1.64-.35-3.31-.58-5-.82-3.51-.49-7-.85-10.53-1.46a13.71,13.71,0,0,0-8.84,1.7,27.56,27.56,0,0,1-6.08,2c-2.65.64-5.33,1.12-8,1.56-1.61.27-3.26.32-4.89.48a2.11,2.11,0,0,0-.49.22c2.61,1.19,5.11,2.36,7.63,3.48,3.74,1.65,7.49,3.3,10.7,5.91,2.53,2.07,5.12,4.11,7.44,6.42a101.49,101.49,0,0,1,7.79,8.66c3.14,3.91,6.14,8,9,12.06,3.65,5.23,7,10.63,10.68,15.87A150.36,150.36,0,0,0,207,120.35c2,2.25,3.93,4.61,6.14,6.65,1.9,1.74,4.22,3,6.24,4.63,3.27,2.62,7,4.26,10.79,6,2.22,1,4.31,2.33,6.45,3.54.19.11.45.45.4.56a1.07,1.07,0,0,1-.61.51,1.86,1.86,0,0,1-1,0c-2-.77-4-1.67-6-2.37-1.86-.64-3.78-1.11-5.68-1.59-1.3-.33-2.64-.52-3.94-.82-3.65-.85-7.32-1.63-10.93-2.63a39.69,39.69,0,0,1-4.76-2.05c-.8-.34-1.64-.56-2.44-.89a45.78,45.78,0,0,1-11-6.72c-2-1.57-4.11-2.94-6-4.56a31.61,31.61,0,0,1-3-3.34c-2.35-2.61-4.79-5.13-7-7.83-2-2.42-3.82-5-5.65-7.55s-3.67-5.31-5.48-8c-2.19-3.21-4.38-6.42-6.53-9.66-.86-1.28-1.5-2.71-2.44-3.92-2-2.57-4.12-5.06-6.22-7.56s-4.23-5-6.44-7.45c-.92-1-2.13-1.76-3.13-2.71a39.83,39.83,0,0,0-11.48-7.83,22.75,22.75,0,0,0-7.06-2.29c-.6-.06-1.14-.7-1.75-.76-1.31-.14-2.65-.09-4-.11-.43,0-1,.18-1.27,0-1.74-1.32-3.74-1-5.65-.93-6,.1-12,.2-18,.52-3.58.18-7.14.75-10.7,1.18-4.54.56-9.09,1.08-13.62,1.74-1.9.28-3.88.29-5.63,1.36-.55.33-1.45,0-2.15.17a4.8,4.8,0,0,0-1.95.78,2.44,2.44,0,0,1-2.55.64,1.88,1.88,0,0,1-1.3-2.27c.2-.79.28-1.62.45-2.43a2.08,2.08,0,0,1,2.26-1.67c5,.62,9.88-.37,14.76-1.3,4.17-.79,8.37-1.39,12.57-2,2.69-.38,5.39-.68,8.1-.87,2.46-.18,4.93-.27,7.39-.23,5.63.1,11.26.32,16.89.46a16.79,16.79,0,0,0,4.87-.17c1.57-.45,2.94-1.63,4.4-2.48,2-1.21,4.18-2.28,6.11-3.64,3.15-2.22,6.2-4.57,9.22-7,3.27-2.6,6.44-5.32,9.68-8,2.71-2.2,5.4-4.44,8.21-6.51a103.85,103.85,0,0,1,15.51-9.49c3.76-1.87,7.59-3.61,11.5-5.12A58,58,0,0,1,191.92,2,93.48,93.48,0,0,1,202.41.22a76.39,76.39,0,0,1,9.33-.15c4.37.1,8.73.3,13.09.56s8.64.57,12.94,1c2.33.24,4.61.82,6.92,1.22a7.56,7.56,0,0,1,2,.24c.45.22.68.92,1,1.41-.51.3-1,.86-1.55.85-1.49,0-3-.36-4.45-.47a11.09,11.09,0,0,0-2.3.11c-3.3.45-6.62.83-9.9,1.42a25.22,25.22,0,0,0-9.42,3.89c-1.7,1.11-3.54,2-5.2,3.17-2.69,1.88-5.27,3.92-7.94,5.84-2.92,2.1-5.88,4.14-8.83,6.2-2.31,1.62-4.62,3.25-6.95,4.84-3.2,2.2-6.43,4.37-9.64,6.55a1.79,1.79,0,0,0-.31.36Zm29-34.75c-2.92.35-5.57.5-8.14,1-3.72.73-7.4,1.62-11,2.61a34.4,34.4,0,0,0-5.32,2.06,61.53,61.53,0,0,0-8.27,4.06c-5.33,3.48-10.51,7.22-15.67,11-4.51,3.29-8.88,6.77-13.34,10.13-3,2.26-5.95,4.64-9.11,6.66a74.55,74.55,0,0,1-14,7.3,7.35,7.35,0,0,0-1.33,1c1.6.11,2.65.14,3.71-.7.54-.43,1.94-.65,2.32-.3,1.41,1.31,2.62.33,3.95.22-.41-1.7-.13-2.22,1.27-2.78a1.69,1.69,0,0,1,2.36,1c.75,1.39,1.47,1.54,2.93.64-1.46-1.31-1.67-2-.84-2.87a2.17,2.17,0,0,1,2.8-.34c.79.76.56,1.93-.73,3.22a6.57,6.57,0,0,0,.83,0c3.13-.42,6.26-.79,9.38-1.3a55.71,55.71,0,0,0,7.37-1.53,60.08,60.08,0,0,0,7.84-3.12c5.12-2.43,10.22-4.95,15.25-7.58a48,48,0,0,0,5.46-3.69c2-1.44,4-2.92,6-4.43,2.23-1.71,4.38-3.5,6.6-5.21,1.81-1.41,3.71-2.69,5.49-4.14A61.69,61.69,0,0,1,219,7.58c3.31-1.53,6.67-3.09,10.37-3.57.13,0,.24-.16.52-.36l-4.8-.42.17.33a5.88,5.88,0,0,1-1.76,1.22A1.67,1.67,0,0,1,222,4.05c-.51-1.45-1.53-1.06-2.52-1-.08,1.53-.81,2.47-2.09,2.4S216.19,4,216,2.93l-3.85-.16c.46,1.26,1.51,2.33.33,3.26a2.65,2.65,0,0,1-2.33-.14C208.81,5.1,209.72,4.06,210.43,2.93Zm76.65,21.84c-.05,0-.43,0-.81-.11-5.13-1-10.24-2.16-15.4-3a96.28,96.28,0,0,0-10.3-1.15,65.16,65.16,0,0,0-13.75.21c-4.75.71-9.56,1.09-14.24,2.08a120.12,120.12,0,0,0-12.33,3.68c-3,1-5.87,2.11-8.78,3.22-3.87,1.49-7.72,3.05-11.6,4.51-4.25,1.61-8.51,3.2-12.81,4.69-3.2,1.1-6.47,2-9.68,3.06a1.76,1.76,0,0,0-.89,1.15,5.87,5.87,0,0,0,.12,1.79l2.16.38c.41-1.08.77-2,1.12-3a1.37,1.37,0,0,1,1.82-.82c.85.21,1.92.35,1.94,1.55a21.19,21.19,0,0,1-.35,2.69c2.78.28,5.77.69,8.76.84a12.71,12.71,0,0,0,4.73-.55,8,8,0,0,1,4.44-.38,5.38,5.38,0,0,0,1.79,0c3.26-.42,6.52-.86,9.77-1.36,2.4-.37,4.8-.74,7.15-1.29,3.6-.83,7.17-1.77,10.73-2.75,2.78-.78,5.52-1.69,8.28-2.54a17.8,17.8,0,0,1,2.18-.7c1.6-.26,3.25-.33,4.84-.65,4.93-1,9.83-2.17,14.78-3.11,5.61-1.07,11.26-1.95,16.89-2.91.73-.13,1.43-.38,2.16-.44,3.45-.26,6.91-.47,10.36-.71.9-.06,1.92,0,1.64-1.44-.06-.32.33-.73.59-1.26l-3.19-.89c0,1.45-.24,2.65-1.68,2.7-.56,0-1.63-.74-1.62-1.12C285.93,26.46,286.56,25.76,287.08,24.77Zm-18.52,86.91a23.77,23.77,0,0,0,7.43,2.58c-1.16-1.5-2.44-2.81-3.64-4.2-2.61-3-5.27-6.07-7.74-9.24C260.82,96,257.2,91,253.48,86.1c-3-4-6-8.09-9.19-11.93s-6.7-7.39-10.1-11a41.41,41.41,0,0,0-10.13-7.58A87.21,87.21,0,0,0,214.62,51c-2.82-1.17-5.7-2.3-8.89-2-2.53.22-5.06.4-7.6.52a16.58,16.58,0,0,1-2.52-.21l0,.35a6.92,6.92,0,0,1,1.21.31c4.93,2.3,9,5.82,12.83,9.56,1.87,1.8,3.59,3.75,5.34,5.67q6.1,6.66,12.19,13.37c2.77,3,5.47,6.14,8.36,9.07,3.47,3.51,7.06,6.9,10.68,10.25a68.22,68.22,0,0,0,6.84,5.77,89.91,89.91,0,0,0,8.3,5c1.82,1,3.79,1.77,6,2.78-.28-1.53-.6-2.68,1-3a1.48,1.48,0,0,1,1.77,1C270.78,110.77,269.62,111.07,268.56,111.68ZM217.67,134a3.92,3.92,0,0,0-.31-.65,3.22,3.22,0,0,0-.68-.6c-3.51-1.9-6-5-8.9-7.63-2.27-2.12-4.1-4.71-6.37-6.84a61.18,61.18,0,0,1-7.2-9c-2.48-3.44-4.79-7-7.21-10.49-1.16-1.67-2.46-3.24-3.58-4.94-1.8-2.73-3.3-5.68-5.31-8.25-3.15-4-5.85-8.46-9.69-12-2.11-1.92-4.12-4-6.34-5.75a91.06,91.06,0,0,0-7.47-5.32c-2.59-1.69-5.25-3.3-8-4.75a68.83,68.83,0,0,0-6.52-2.86c-2.76-1.11-5.52-2.33-8.72-1.49.81.37,1.56.68,2.28,1a35.09,35.09,0,0,1,8.83,6.57c2.38,2.39,4.81,4.74,7,7.26,2.58,2.92,5,6,7.4,9,1.63,2.13,3.07,4.41,4.52,6.66,1.33,2.08,2.52,4.24,3.84,6.32,1.15,1.83,2.37,3.62,3.6,5.4,1.78,2.57,3.45,5.22,5.43,7.62,3.1,3.77,6.26,7.52,9.71,11a78.16,78.16,0,0,0,10.13,8.68,66,66,0,0,0,10,5.38c4,1.87,8.09,3.5,12.15,5.22A9.57,9.57,0,0,0,217.67,134Zm98.8-89.37a14.91,14.91,0,0,0-1.37-.74c-3-1.17-6-2.41-9.07-3.47s-6.31-2.16-9.54-2.94c-6.26-1.51-12.49-3.24-19-2.94-2,.09-4.11-.19-6.11.1-2.68.38-5.31,1.14-8,1.74l-4.11.95a2.48,2.48,0,0,0,0,.54c.24.92.18,1.94-.76,2.17-.59.15-1.39-.54-2.08-.88-.26-.13-.52-.52-.71-.48-1.56.35-3.11.76-4.65,1.2-.17,0-.24.4-.38.64a2.53,2.53,0,0,0,.52.3c3.86.94,7.71,1.9,11.58,2.8a33.08,33.08,0,0,0,3.46.47c1.11.14,2.23.19,3.33.37,3.32.53,6.63,1.29,10,1.62,4.39.44,8.83.4,13.22.85,4.13.43,8.22,1.23,12.34,1.87,1.23.18,2.56.74,3.67.45a5.74,5.74,0,0,1,4.18.78A20.41,20.41,0,0,0,318.23,52a21.21,21.21,0,0,1,3.29,1c1.48.58,2.93,1.27,4.39,1.91,3,1.33,6,2.6,9,4,1.78.85,3.46,1.92,5.43,3,0-.87.28-1.8,0-2.11-1.31-1.29-2.81-2.4-4.27-3.61-.85,1.64-1.39,1.82-2.61,1s-.46-1.64.29-2.48l-3.64-2.57c-.15,1.93-.39,2.27-2.06,2.44a1.75,1.75,0,0,1-1.31-.83c-.68-1.21-.45-2.22,1.39-2.66a50.42,50.42,0,0,0-10.21-5.75c.31,2.15.34,2.26-1.53,2.81a6.85,6.85,0,0,1-2.53-.27c.12-.64.23-1.29.37-1.93a6.26,6.26,0,0,1,.28-.78ZM325,92l.17-.35c-.32-.28-.65-.55-1-.84a65.88,65.88,0,0,1-6-5.52c-3.52-4.11-6.72-8.5-10.19-12.66-2.77-3.32-5.73-6.48-8.62-9.7-1.3-1.46-2.57-3-3.95-4.34s-3-2.8-4.46-4.19c.2,1.53-.37,2.73-1.77,3.06a1.92,1.92,0,0,1-1.68-.62,2,2,0,0,1,.14-1.86,9.56,9.56,0,0,1,2.16-1.56l-2.55-1.52c-.94,1.55-2.16,2.15-3.07,1.6s-1.08-1.69,0-3.23l-4.37-.82-.26.48c.32.48.61,1,1,1.43,2.23,2.74,4.56,5.41,6.69,8.23,1.48,1.94,2.61,4.14,4.05,6.11,2.06,2.83,4.18,5.63,6.45,8.29a46.6,46.6,0,0,0,4.51,4.25c2.53,2.28,5.07,4.56,7.66,6.78A22.23,22.23,0,0,0,312.71,87c.94.6,1.91,1.14,2.87,1.71l0-.61a10.76,10.76,0,0,1,1.77-1.49c.26-.14,1.21.37,1.19.43-.21.85-.52,1.67-.87,2.66C319.87,90.43,322.15,92.07,325,92Zm6.72-20.3.25.1a1.06,1.06,0,0,0-.1-.37c-.34-.46-.7-1.26-1.05-1.26A2.55,2.55,0,0,0,329,71c-.2.25.33,1.11.59,1.66.56,1.19,1.14,2.37,1.74,3.55,1.23,2.43,2.48,4.86,3.72,7.29l.34,0c-.21-1.78.89-2.18,2.44-2.24-.55-1-1-1.84-1.52-2.75-.77.8-1.45,1.84-2.63,1.09a1.58,1.58,0,0,1-.36-1.48c.42-1.09,1.38-.95,2.46-.8-.87-1-1.74-2.07-2.65-3.17-1,.83-1.95.48-2.27-.41C330.68,73.19,331.39,72.37,331.7,71.7Zm9.71,20.47,2.13-2.34-1.35-2.14c-1.55,1-3,1.06-3.44.26-.16-.28-.29-.81-.15-1,.58-.61,1.26-1.12,2-1.74L339,83l-3.44,1.38Zm1.34,1.36c1.07.88,2.18,1.77,3.39,2.75.31-1,1.39-1.37.62-2.62C345.54,91.66,344.31,92.23,342.75,93.53Zm5.93-25.43c0-.41,0-.58,0-.63-1.66-1.62-3.32-3.25-5.05-4.81-.2-.18-.77.05-1.18.09l0,.45Zm-21,1.13,2.19-1.39-1.72-2.12-1.9.76Zm-1.77-3.37c.38-.81,1.1-1.71.9-2A31.09,31.09,0,0,0,324,60.34l-.22.21Zm-27-36.53.09-.55-4.79-1.64-.26.39c.35.51.62,1.37,1.05,1.46A26.79,26.79,0,0,0,298.9,29.33Zm48.83,68.14c.84.8,1.54,1.55,2.34,2.19.24.2.73.08,1.11.11,0-.35.06-.79-.13-1-.56-.7-1.22-1.31-1.79-1.9Z"/><path class="cls-3" d="M220.65,159.6,216,159l0,.36c-.35.11-.75.39-1,.3-1.53-.48-3-1.11-4.53-1.58-1.19-.36-2.46-.49-3.65-.87-1.93-.61-3.79-1.43-5.73-2-1.76-.53-3.59-.85-5.39-1.27-3.69-.87-7.41-1.67-11.07-2.64-5.3-1.4-10.59-2.85-15.83-4.45-3.17-1-6.24-2.26-9.36-3.4-3.52-1.29-7.06-2.53-10.56-3.9-1.07-.42-2-1.25-3-1.74-2.82-1.33-5.72-2.48-8.49-3.9-2.45-1.27-4.75-2.83-7.14-4.23-2.09-1.23-4.25-2.34-6.3-3.62-2.71-1.71-5.34-3.53-8-5.31-2.15-1.45-4.33-2.87-6.42-4.41s-4.29-3.36-6.43-5c-2.73-2.16-5.51-4.29-8.18-6.52-2.09-1.74-4-3.7-6.09-5.44-1.73-1.43-3.59-2.72-5.43-4-2.2-1.54-4.48-3-6.65-4.51C72.81,88,69,85.06,65.09,82.31c-2-1.38-4.09-2.54-6.18-3.75-3.72-2.18-7.45-4.34-11.21-6.45a20.3,20.3,0,0,0-3.11-1.32A100,100,0,0,0,35,67.49a39.61,39.61,0,0,0-12.59-1.08c-3.48.26-7-.2-10.52-.29-2.24-.06-4.48-.09-6.72,0A6.2,6.2,0,0,0,2.8,67c-.93.48-1.81.66-2.44-.25a1.7,1.7,0,0,1,.47-2.51c.07,0,.2-.07.23-.13C2.33,60.51,5.33,61.43,8,61.49c4,.1,8,.15,11.94.5,4.89.44,9.8.82,14.54,2.42A6,6,0,0,0,39.78,64c1-.62,2.32-.59,3.49-.89,2.92-.76,5.82-1.65,8.76-2.28,2.71-.58,5.46-.94,8.21-1.28,3.95-.47,7.91-1,11.88-1.19a69.62,69.62,0,0,1,8,.24c2.41.14,4.82.35,7.22.61a30.19,30.19,0,0,1,3.51.68c3.77.88,7.59,1.63,11.3,2.72a126.8,126.8,0,0,1,12,4.14,38.11,38.11,0,0,1,6.47,3.81c3.06,2,6.07,4.15,9,6.36s5.8,4.48,8.61,6.85a34,34,0,0,1,3.14,3.41c2.25,2.52,4.55,5,6.72,7.57,2.59,3.09,5.09,6.25,7.57,9.43,1.45,1.87,2.74,3.86,4.18,5.75.93,1.24,2,2.35,3,3.56,3.91,5,7.61,10.13,11.75,14.9a150.71,150.71,0,0,0,11.12,11.06c2.23,2.08,4.74,3.85,7.16,5.71,2.1,1.62,4.16,3.32,6.39,4.73a38.76,38.76,0,0,0,6.82,3.55c2.24.86,4.74,1,7,1.83a73.58,73.58,0,0,1,7.07,3.23c.26.12.41.49.61.74Zm-109-69.33c-1.64,3.33-2.25,5.67-1.17,8.36a130.88,130.88,0,0,0,6,12.56,32.33,32.33,0,0,0,6.81,9.13c2.11,1.88,4.32,3.66,6.7,5.66a12,12,0,0,0-.67-3.15c-1.3-2.35-2.82-4.57-4.19-6.88a43.59,43.59,0,0,0-2.52-4.56c-1.49-1.94-1.66-4.21-1.82-6.39a50.83,50.83,0,0,1,.49-6.94,1.27,1.27,0,0,0-.4-1C117.84,94.81,114.8,92.59,111.66,90.27Zm-10.09-6.44c-1.47,1.51-1.37,3.34-1.27,5.09.24,4.4,1.89,8.42,3.74,12.33A45.44,45.44,0,0,0,111,111.9c1.46,1.66,2.44,3.74,4.48,4.91,1.2.68,2.29,1.57,3.42,2.37l.31-.28c-.17-.34-.31-.71-.5-1-1.54-2.57-3.14-5.09-4.62-7.69-1.31-2.3-2.3-4.8-3.79-7a10.66,10.66,0,0,1-2-5.5c-.14-2.93.19-5.87.26-8.81a1.55,1.55,0,0,0-.55-1.16C105.86,86.41,103.75,85.16,101.57,83.83Zm6.11,27.58.34-.25c-.22-.42-.4-.85-.65-1.24-1-1.48-2-2.92-2.93-4.45a69.6,69.6,0,0,1-3.69-6.72,25.25,25.25,0,0,1-2.51-10.26c0-2-.68-4.13.35-6.14.1-.18-.29-.78-.59-1-.91-.59-1.92-1-2.82-1.62-2.37-1.54-3.36-1.19-4.17,1.57a8.7,8.7,0,0,0-.18,1,12.11,12.11,0,0,0,1.5,7.43c3,5.52,6.06,11,9.5,16.25C103.24,108.17,105.7,109.63,107.68,111.41Zm29.83-22.24a7.08,7.08,0,0,0-.56-.88c-1.12-1.14-2.29-2.22-3.35-3.41A7.53,7.53,0,0,0,129,82.33c-3.73-.54-7.45-1.1-11.2-1.43a39.11,39.11,0,0,0-6.21.16,43.37,43.37,0,0,0-4.36.68c-.93.17-1.86.42-3.13.71,1.79,1.18,3.31,2.1,4.72,3.15,1.11.84,2.13,1.23,3.38.34a1.72,1.72,0,0,1,1-.18c2.24.13,4.49.17,6.7.47,4.48.6,9,1.33,13.42,2C134.66,88.49,135.94,88.83,137.51,89.17Zm2.43,41c-.85-2.41-2.66-3.94-4-5.79a28.77,28.77,0,0,1-3.35-5.2,21,21,0,0,1-1.67-10.64c.16-1.67.18-3.43-1.45-4.68s-2.9-2.48-4.36-3.71c-1-.81-1.19-.74-1.6.44-1.69,4.93.19,9.27,2.32,13.52a47.37,47.37,0,0,0,2.9,4.77C131.64,123.31,134.72,127.65,139.94,130.13Zm4.37-33.52a11.65,11.65,0,0,0-1.3-1.87c-1.14-1.06-1.71-2.71-3.55-3-3.61-.68-7.23-1.35-10.78-2.31a36.55,36.55,0,0,0-11.45-1c-.9.05-2.1-.27-2.75,1,.92.58,1.79,1,2.56,1.62,1.68,1.29,3.29,2.67,5,4a2.05,2.05,0,0,0,1.26.42,35.77,35.77,0,0,1,3.78-.53c3.45.06,6.91.19,10.35.5C139.6,95.58,141.78,96.15,144.31,96.61ZM94.37,77.19c2,1.12,3.61,2.08,5.28,3a2,2,0,0,0,1.19.27c2.82-.44,5.61-1.08,8.45-1.37a60,60,0,0,1,14.9.39c.75.11,1.5.17,2.25.26a2.8,2.8,0,0,0-1-1.33c-1.13-.77-2.29-1.54-3.47-2.23A7.12,7.12,0,0,0,119.47,75a53.55,53.55,0,0,0-8.9-.75,81.61,81.61,0,0,0-10.39,1.44C98.3,76.05,96.46,76.66,94.37,77.19Zm55,57.3c-1.5-2-2.93-4.14-4.49-6.13a15.52,15.52,0,0,1-3.51-7.79c-.19-1.5-.27-3-.33-4.53a3.33,3.33,0,0,0-1.44-2.84,46.6,46.6,0,0,1-4-3.79c-.62-.59-1.27-1.14-2.14-1.91-.15,1-.24,1.65-.34,2.29a15.21,15.21,0,0,0,1.45,8.2,31.13,31.13,0,0,0,5.73,8.92,23.2,23.2,0,0,1,2.22,2.08C144.24,131.51,146.93,132.82,149.37,134.49Zm3.06-28.38A15.47,15.47,0,0,0,144,99a29.73,29.73,0,0,0-10.93-2c-2.32,0-4.65.26-7,.41l-.07.48c.46.45.88.93,1.37,1.34,1.24,1.06,2.61,2,3.75,3.16s2,1.07,3.49.9a27.85,27.85,0,0,1,12.64,1.18C148.93,105,150.56,105.49,152.43,106.11Zm7.74,9.31c-.55-1.34-4.71-5.7-6.62-6.51-2.22-.94-4.55-1.6-6.8-2.45a19.42,19.42,0,0,0-9.44-.82,1.61,1.61,0,0,0-1,.59c-.1.15.23.7.49,1,1.07,1.06,2.24,2,3.28,3.12s2.27,2,3.94,1.15a.88.88,0,0,1,.51,0c2.94.53,5.9.92,8.79,1.64C155.68,113.67,158,114.66,160.17,115.42ZM145,114.77c.34.36.58.68.87.93.85.71,1.75,1.36,2.57,2.1,1.39,1.27,2.7,2.64,4.12,3.88a2.28,2.28,0,0,0,1.44.3c2.66-.11,5.32-.18,7.8,1,2.17,1,4.27,2.14,6.25,3.13C164,118.1,152.9,112.63,145,114.77Zm-55.58-18,.3-.27L86,89.46c-.92-1.72-2-3.37-2.75-5.16a21.45,21.45,0,0,1-1.64-8.5,1.23,1.23,0,0,0-1.16-1.4,39.53,39.53,0,0,1-4.18-1.3c-1.53-.48-2.06-.17-1.69,1.36a19.54,19.54,0,0,0,2.22,6.19C79.73,85,83,89.19,86.21,93.38A45.5,45.5,0,0,0,89.44,96.82ZM87,73.61l.1.45c1,.46,2,1,3,1.34.33.11.83-.2,1.22-.38.54-.25,1-.74,1.58-.81,3.29-.43,6.63-.56,9.88-1.2a42.47,42.47,0,0,1,10.06-.64c.68,0,1.37.09,2,.13-1.42-.9-3-1.43-4.33-2.24a10.57,10.57,0,0,0-5.9-1.52,38,38,0,0,0-14.56,3A25.7,25.7,0,0,0,87,73.61Zm-21.68-3.4a6.51,6.51,0,0,0,.38,4.57c.9,1.76,1.6,3.85,3,5.08C72,82.66,75.59,85,79.12,87.59c-.89-1.36-1.83-2.66-2.61-4.06-1.87-3.36-4.56-6.4-4.29-10.66a1.59,1.59,0,0,0-.89-1.21C69.38,71.1,67.39,70.69,65.31,70.21Zm91.89,68c-.37-.52-.55-.8-.76-1.05-1-1.19-2.13-2.29-3-3.55a11.8,11.8,0,0,1-2.18-8.94,2,2,0,0,0-.55-1.42c-.92-1-1.93-1.86-2.94-2.75-1.21-1.07-2.46-2.11-3.69-3.16C141.21,121.24,151.14,136.57,157.2,138.21ZM96.81,102.48l.38-.27c-.2-.42-.38-.86-.61-1.27-1.82-3.25-3.68-6.48-5.48-9.74a19.87,19.87,0,0,1-1.88-4A22.67,22.67,0,0,1,89,78.33a1.43,1.43,0,0,0-.63-1.12c-.9-.5-1.9-.81-2.83-1.27s-1.49-.27-1.5.77a11.24,11.24,0,0,0,.24,3.86,76.16,76.16,0,0,0,3.89,9.33,83.17,83.17,0,0,0,5.19,8.37C94.36,99.77,95.65,101.08,96.81,102.48ZM101,66.62l.12-.38c-.64-.32-1.27-.69-1.94-.95-1.6-.63-3.22-.22-4.86-.1A47.32,47.32,0,0,0,81.08,68.6,16,16,0,0,0,78,70.71l.08.51a4.55,4.55,0,0,1,1.24.35c1.69,1,3.23-.07,4.77-.39,1.77-.35,3.43-1.17,5.17-1.66,3.29-.91,6.6-1.74,9.91-2.58C99.77,66.78,100.4,66.73,101,66.62ZM88.54,63.43c-4.55-1.67-18.64,1.49-20,4.91,2.1,1.27,4.4,1,6.65.8C78.84,65.76,83.82,65.3,88.54,63.43Zm84.27,68.65.29-.43a24.3,24.3,0,0,0-2.94-2.55c-1.68-1-3.5-1.86-5.25-2.8-2.68-1.44-5.42-2.47-8.71-1.42,1.36,1.26,2.47,2.78,4,3.56s2.34,3,5,2.07c1.52-.52,3.58.51,5.4.89C171.3,131.56,172.05,131.85,172.81,132.08ZM164,141.79l.21-.22c-.65-1.1-1.4-2.16-1.94-3.31-.77-1.64-2-3.22-1.19-5.25a1.17,1.17,0,0,0-.31-1c-1-.84-2.08-1.55-3-2.41a31.06,31.06,0,0,1-2.11-2.32l-1.42-1.58-.43.12a11.73,11.73,0,0,0-.14,2.76,12.92,12.92,0,0,0,3.61,6.64c.93,1,1.69,2.14,2.66,3.07C161.22,139.52,162.65,140.63,164,141.79Zm-117.46-74-.18.37a68,68,0,0,1,17.88,8.69c-1-2.43-1.87-4.67-2.8-6.88a1.22,1.22,0,0,0-.77-.61A39.8,39.8,0,0,0,56,68.48C52.85,68.18,49.7,68,46.56,67.78Zm141.63,79.45.17-.23c-.38-.37-.75-.76-1.14-1.12-2.39-2.26-4.91-4.41-7.15-6.8a18.67,18.67,0,0,0-10.19-5.74,16.41,16.41,0,0,0-2.81-.09l-.1.46c1.71,1.23,3.39,2.5,5.13,3.69.73.5,1.64,1.32,2.35,1.2,2.94-.47,5,1.07,7,2.72.22.18.29.56.42.84a2.89,2.89,0,0,1-1,.28,9,9,0,0,1-1.56-.48l-.11.29ZM71,63.59l-.12-.34c-2.09.22-4.17.51-6.27.66-4.22.31-8.44.52-12.67.81-.93.07-1.85.3-2.78.45l0,.47c.39.06.77.15,1.16.19,3,.32,6,.76,9,.89,1.89.08,3.7,1.63,5.79-.23C66.74,65.1,69,64.53,71,63.59Zm100.82,80.77a11.3,11.3,0,0,1-.81-1.31c-.35-.77-1-1.61-.86-2.34a2,2,0,0,0-1.11-2.23c-.54-.35-1.05-.76-1.57-1.15l-3.91-2.91a5.42,5.42,0,0,0,.18.93,35.69,35.69,0,0,1,2.48,5.24C167.09,143.47,169.44,143.85,171.84,144.36Zm1.62-2.55c.29,2.54,1.17,3.79,2.52,3.7-.17-.37-.49-.74-.5-1.12C175.44,142.82,175.11,142.33,173.46,141.81Zm7.85,4.89L179,145.28C178.77,146.44,179.08,146.64,181.31,146.7Z"/><path class="cls-3" d="M463.94,110.06c.31,1.14-.29,2.75-1,3-1.11.33-2.1-.36-2.92-2.16l-2.26.46c1.28,1.17,1.55,2.2.88,2.94s-1.77.62-3.05-.49c-.94-.82-.23-1.35.56-2.11-.66,0-1.06,0-1.46,0a60.87,60.87,0,0,1-15.84-.15c-3.16-.53-6.34-.87-9.5-1.35-1.22-.19-2.42-.55-3.64-.81-5.13-1.12-10.31-2.07-15.39-3.41a45.58,45.58,0,0,1-7.83-3.18c-3.16-1.5-6.22-3.2-9.33-4.79-.65-.33-1.4-.48-2-.83-.89-.51-1.69-1.14-2.54-1.71-1.87-1.25-3.78-2.43-5.59-3.76-2.22-1.63-4.4-3.33-6.52-5.08Q372,83,367.69,79.2c-1.2-1-2.34-2.17-3.45-3.31-1.87-1.91-3.68-3.87-5.53-5.8-2.82-2.93-5.59-5.92-8.49-8.78s-5.73-5.45-8.69-8.07c-2.35-2.09-4.77-4.11-7.28-6a15.58,15.58,0,0,0-3.75-1.71c-.81-.31-1.32-.86-.75-1.51a3.57,3.57,0,0,1,2.06-.78,4.6,4.6,0,0,1,1.72.33c.6.17,1.18.43,1.78.63l3.52,1.18a15,15,0,0,1,2.32.75c2.14,1.11,4.22,2.33,6.35,3.47,1.67.89,3.4,1.67,5.05,2.59s3.45,2.06,5.17,3.1c.73.44,1.47.87,2.16,1.36,4,2.84,8,5.66,11.89,8.56,1.81,1.34,3.42,2.93,5.21,4.28,2.47,1.86,5.06,3.56,7.53,5.43,1.3,1,2.36,2.3,3.67,3.27,3.65,2.69,7.28,5.42,11.09,7.88s7.79,4.76,11.83,6.86c3.48,1.8,7.14,3.26,10.76,4.78a70.41,70.41,0,0,0,7.87,3c5.73,1.62,11.47,3.29,17.3,4.44a90.49,90.49,0,0,0,13.18,1.26,26.38,26.38,0,0,0,5.59-.81c1.11-.19,2.27-.34,2.81.86a2.47,2.47,0,0,1-.12,2,1.65,1.65,0,0,1-1.54.52c-1.19-.72-1.82-.22-2.43.72C464.42,109.83,464.17,109.9,463.94,110.06Z"/><path class="cls-3" d="M445.72,115.35c-.51-1.46-.2-2.3,1-2.68a2.73,2.73,0,0,1,2.87,1.24c.34.93-.33,1.94-1.61,2.41S446.09,116.44,445.72,115.35Z"/><path class="cls-3" d="M440.41,113.32c.73.05,1.88-1,2.49.51s.17,2.44-.92,2.81a2.1,2.1,0,0,1-2.86-1.25C438.78,114.45,439.15,113.78,440.41,113.32Z"/><path class="cls-3" d="M419.69,113.86a1.78,1.78,0,1,1-1.48-3.21,2.09,2.09,0,0,1,2.79.85C421.43,112.53,421,113.35,419.69,113.86Z"/><path class="cls-3" d="M428.63,112.35a1.83,1.83,0,0,1,2.41.89,2.05,2.05,0,0,1-1.29,2.37c-1.09.46-1.88.2-2.26-.75A1.85,1.85,0,0,1,428.63,112.35Z"/><path class="cls-3" d="M434.66,112.86a7.2,7.2,0,0,1,2,1.33c.48.63-.27,2.32-.92,2.57a2.37,2.37,0,0,1-2.38-.84A2.94,2.94,0,0,1,434.66,112.86Z"/><path class="cls-3" d="M425.71,113c.24.75-.39,1.32-1.11,1.72a1.89,1.89,0,0,1-2.5-.62,2.4,2.4,0,0,1,.82-2.52A2.2,2.2,0,0,1,425.71,113Z"/><path class="cls-3" d="M453.78,115.53c-.82.32-2.3-.2-2.25-.94s.6-1.84,1.05-1.91a2.76,2.76,0,0,1,2.28.89C455.48,114.46,454.49,115.05,453.78,115.53Z"/><path class="cls-3" d="M159.59,34.12c-.64-1.76,1.09-4,2.59-3.68a2.09,2.09,0,0,1,1.2,1.41c.25,1.18-1.44,2.94-2.63,2.83A3.13,3.13,0,0,1,159.59,34.12Z"/><path class="cls-3" d="M170.21,22.94c1.08-.69,2.25-.4,3.39,1A10.09,10.09,0,0,1,172.49,26a1.79,1.79,0,0,1-3-.11,1.48,1.48,0,0,1-.14-1.14A12.81,12.81,0,0,1,170.21,22.94Z"/><path class="cls-3" d="M177.41,21.71c-1.42.26-2.72,0-3-.79a4.83,4.83,0,0,1,1-2.86c1.2-.47,3,.19,3.1,1.34C178.61,20.15,177.83,20.94,177.41,21.71Z"/><path class="cls-3" d="M164.4,27.76c2.12-.88,3.59-.91,3.92-.11.39,1-.71,2.8-1.86,3.12C165.55,31,165,30.19,164.4,27.76Z"/><path class="cls-3" d="M147.64,43.77c-1.39.48-2.31.14-2.65-.82a2,2,0,0,1,3.86-.92C149.13,43.15,148.19,43.45,147.64,43.77Z"/><path class="cls-3" d="M194.24,6.57c3-.18,3.37,0,3.35,1.5a2,2,0,0,1-2.33,1.81C193.94,9.7,193.74,9.07,194.24,6.57Z"/><path class="cls-3" d="M151,38.59a1.89,1.89,0,0,1,2.7,1.22,1.45,1.45,0,0,1-1.13,1.88,2.15,2.15,0,0,1-2.67-1A1.54,1.54,0,0,1,151,38.59Z"/><path class="cls-3" d="M179.34,15.3c2.19-1.24,3.1-1.2,3.83.15a1.4,1.4,0,0,1-.7,2.14C181.2,18.19,180.43,17.64,179.34,15.3Z"/><path class="cls-3" d="M190.73,8.52a2.42,2.42,0,0,1,2.52,1.12,2.18,2.18,0,0,1-1.51,2.25,2.48,2.48,0,0,1-2-.85A1.71,1.71,0,0,1,190.73,8.52Z"/><path class="cls-3" d="M188.36,11.62c-.13,1,.18,2.33-1.41,2.58-.87.14-1.75,0-2-.91a2.32,2.32,0,0,1,.17-1.87C185.69,10.58,187,10.75,188.36,11.62Z"/><path class="cls-3" d="M207.62,5c.3,1-.4,2.69-1.23,2.56a3.58,3.58,0,0,1-2.13-1.32c-.44-.58.49-1.87,1.3-2.07S207.46,4.39,207.62,5Z"/><path class="cls-3" d="M156.26,35.3a2.56,2.56,0,0,1,2.85,1.46c.33,1.08-.61,1.35-1.24,1.69a1.79,1.79,0,0,1-2.41-1.2C155.39,36.64,156,36,156.26,35.3Z"/><path class="cls-3" d="M199.06,5.8c1.88-.68,3.29-.47,3.34.59a2.21,2.21,0,0,1-1,1.78C199.93,8.71,199.31,8,199.06,5.8Z"/><path class="cls-3" d="M252.94,23.34a2,2,0,0,1,2.76.84c.37.89-.63,2.87-1.63,3.23a2.53,2.53,0,0,1-2.74-1.16C250.85,25.06,251.47,23.93,252.94,23.34Z"/><path class="cls-3" d="M244.16,24.6c1.17-.46,2.9.08,3.28,1a2.39,2.39,0,0,1-1.61,2.72,2.3,2.3,0,0,1-2.78-1.23A2.08,2.08,0,0,1,244.16,24.6Z"/><path class="cls-3" d="M207.58,38.88a1.75,1.75,0,0,1-1.09,2.4,2.4,2.4,0,0,1-2.75-1.15,2.21,2.21,0,0,1,1.39-2.81C206.05,37,207.09,37.63,207.58,38.88Z"/><path class="cls-3" d="M273.26,23.29a2.23,2.23,0,0,1,2.36,1.22,2.77,2.77,0,0,1-1.51,2.85,1.8,1.8,0,0,1-2.29-.66C271.33,25.84,272.3,23.67,273.26,23.29Z"/><path class="cls-3" d="M278,26.71c.65-2.16,2.87-3,4.21-1.6.32.34.62,1.07.46,1.4a2.57,2.57,0,0,1-1.41,1.29C279.68,28.22,279.55,28.09,278,26.71Z"/><path class="cls-3" d="M259.9,23.12a2,2,0,0,1,2.43.55c.43.62-.41,2.87-1,3.12a2.26,2.26,0,0,1-2.76-1C258.06,24.51,258.41,23.67,259.9,23.12Z"/><path class="cls-3" d="M188.38,43.78c-1.12.45-2.69,0-3-.77a2.22,2.22,0,0,1,.84-2.48c1.24-.42,3,0,3.31.78A2.35,2.35,0,0,1,188.38,43.78Z"/><path class="cls-3" d="M218.6,37.18a2.24,2.24,0,0,1-2.47-.9,2.52,2.52,0,0,1,1.19-2.73,2.12,2.12,0,0,1,2.73,1A2.35,2.35,0,0,1,218.6,37.18Z"/><path class="cls-3" d="M236.45,26.32c.93-.37,2.24-.09,2.51.54.44,1.09,0,2.79-.81,3.12a2.42,2.42,0,0,1-2.88-1.33A1.86,1.86,0,0,1,236.45,26.32Z"/><path class="cls-3" d="M226.28,31.59c.5,1.33.4,2.2-.54,2.62-1.2.53-2.81,0-3.12-.94-.37-1.09.13-1.84,1.57-2.34C225.24,30.56,226.06,31,226.28,31.59Z"/><path class="cls-3" d="M195.72,40.35a1.93,1.93,0,0,1-1,2.36c-1.15.51-2.49.26-2.9-.54-.3-.59.51-2.26,1.27-2.61A2.41,2.41,0,0,1,195.72,40.35Z"/><path class="cls-3" d="M265.55,23.42a1.71,1.71,0,0,1,2.41.76,2.35,2.35,0,0,1-1.14,2.48c-.95.37-1.9.42-2.51-.57C263.83,25.32,264.57,23.83,265.55,23.42Z"/><path class="cls-3" d="M211.69,35.43c1.28-.79,1.65.44,2.18,1.1s-.5,2-1.38,2.3a2,2,0,0,1-2.25-1.1A2.18,2.18,0,0,1,211.69,35.43Z"/><path class="cls-3" d="M232.69,28.7c.59,1.72.21,2.59-1,3-.71.22-1.59.6-2-.44-.47-1.26.08-2.83,1.15-3A4.41,4.41,0,0,1,232.69,28.7Z"/><path class="cls-3" d="M198.44,39.13c1.17-.25,2.66.25,2.92,1a1.6,1.6,0,0,1-1,2.11c-.68.33-2.66-.2-2.64-.77A9.22,9.22,0,0,1,198.44,39.13Z"/><path class="cls-3" d="M229.51,71.49a1.87,1.87,0,0,1,1.2-2.6c.76-.3,2.46.59,2.85,1.5a1.78,1.78,0,0,1-1.22,2.35A2.12,2.12,0,0,1,229.51,71.49Z"/><path class="cls-3" d="M255.38,96.63c.88-.17,1.86-.8,2.46.43a2.25,2.25,0,0,1-1.09,3.14,2.21,2.21,0,0,1-2.83-1C253.62,98.45,254.45,97,255.38,96.63Z"/><path class="cls-3" d="M248,84.14A10,10,0,0,1,248.6,86a3.85,3.85,0,0,1-.15,2.2c-.23.41-1.18.6-1.78.56a1.54,1.54,0,0,1-1.55-1.56c-.18-1.8.24-2.37,2-2.45C247.49,84.72,247.83,84.27,248,84.14Z"/><path class="cls-3" d="M240.55,82.16c0-.22-.27-.88-.05-1.3A3.86,3.86,0,0,1,242,79.49c.67-.39,1.06,0,1.31.69a17.53,17.53,0,0,1,.78,1.72c.21.82.16,1.67-.81,2S241,83.46,240.55,82.16Z"/><path class="cls-3" d="M225.4,62.4a2.59,2.59,0,0,1,2.93,1.31,1.57,1.57,0,0,1-.79,2.26,2.38,2.38,0,0,1-3.08-1.28A1.91,1.91,0,0,1,225.4,62.4Z"/><path class="cls-3" d="M235.19,74.48a2.46,2.46,0,0,1,3.23,1.21c.42,1,0,1.7-1.32,2.24a2.26,2.26,0,0,1-2.62-1.55A1.51,1.51,0,0,1,235.19,74.48Z"/><path class="cls-3" d="M253.38,92.41a1.77,1.77,0,0,1-.94,2.45c-1,.42-1.91,0-2.45-1.26a1.76,1.76,0,0,1,.86-2.3C252.08,90.75,252.82,91.07,253.38,92.41Z"/><path class="cls-3" d="M214.59,58c.34-.76.48-1.74,1.06-2.22.8-.67,2.62.07,3,1s-.52,1.91-1.85,2.46C215.74,59.67,215.35,58.87,214.59,58Z"/><path class="cls-3" d="M220.48,59.26c1.39-.48,2.11-.21,2.53.93a1.55,1.55,0,0,1-1.09,2.2,1.71,1.71,0,0,1-2.23-1C219.38,60.48,219.47,59.67,220.48,59.26Z"/><path class="cls-3" d="M210.38,51.71c1,.43,2.06.61,2.18,1.06.19.7,1.35,1.75-.11,2.42-.89.41-3-.23-3-1.06C209.36,53.47,209.93,52.76,210.38,51.71Z"/><path class="cls-3" d="M208.37,50.2a1.69,1.69,0,0,1-1.05,2.22c-.77.19-1.78.84-2.34-.39a1.9,1.9,0,0,1,1.22-2.37C207,49.38,207.91,49,208.37,50.2Z"/><path class="cls-3" d="M259.49,101.08c1.2-.53,1.9-.27,2.29.73s0,1.67-1.26,2.27-1.7-.15-2-1C258.13,102.08,259,101.5,259.49,101.08Z"/><path class="cls-3" d="M263.59,104.93c.87-.15,1.76-.42,2.22.7a1.63,1.63,0,0,1-1,2.31c-1,.39-1.57-.34-1.91-1.06A1.34,1.34,0,0,1,263.59,104.93Z"/><path class="cls-3" d="M172.39,86.68a3.07,3.07,0,0,1,2.59,1,2.52,2.52,0,0,1,.56,2.87c-.31.84-2.14.92-2.87.21-.37-.36-.72-.74-1.1-1.09C170.32,88.5,170.51,87.44,172.39,86.68Z"/><path class="cls-3" d="M189,106.63c.55,1.37.21,2.58-.77,3.07a2.81,2.81,0,0,1-2.74-1c-.17-.25-.45-.5-.46-.77a6.23,6.23,0,0,1,.17-2.29c.08-.24,1.06-.34,1.56-.21C187.63,105.66,188.87,105.35,189,106.63Z"/><path class="cls-3" d="M165.71,74.78a6.72,6.72,0,0,0,.57,1.15,2,2,0,0,1-.26,2.71,2.74,2.74,0,0,1-2.25.15c-.84-.26-1.84-.65-1.74-1.91s1.22-1.49,2.24-1.71C164.74,75.06,165.21,74.92,165.71,74.78Z"/><path class="cls-3" d="M183.1,98.6c1.31,2.62,1.19,3.69-.43,4.37-.94.38-2.51-.56-2.93-1.78S180.23,99.31,183.1,98.6Z"/><path class="cls-3" d="M158.43,69.55A2.58,2.58,0,0,1,162,70.7a1.65,1.65,0,0,1-1.05,2.38c-.88.35-3-.34-3.22-1.06A1.88,1.88,0,0,1,158.43,69.55Z"/><path class="cls-3" d="M170.11,80.58a7.73,7.73,0,0,1,.85,1.64c.14.61.28,1.49,0,1.88a1.58,1.58,0,0,1-2.28.47,2,2,0,0,0-.46-.24c-.73-.33-1.69-.74-1.24-1.63A6.34,6.34,0,0,1,169,80.86,3,3,0,0,1,170.11,80.58Z"/><path class="cls-3" d="M178.68,92.87c.16.76.25,1.29.39,1.8.37,1.35-.29,2.34-1.61,2.23-.94-.08-2.1-.16-2.31-1.33s.78-2.21,2.22-2.42C177.83,93.08,178.27,93,178.68,92.87Z"/><path class="cls-3" d="M148.35,60.76c1.75-.56,2.54-.19,3,1.29.3,1.05-.19,1.8-1.42,2.21a2.24,2.24,0,0,1-2.48-1.51C147.13,61.8,147.11,60.89,148.35,60.76Z"/><path class="cls-3" d="M153.87,65.13c1.4-.52,2-.33,2.42.78s.11,2.28-.82,2.58-2.68-.19-2.94-.86C152.07,66.46,152.52,65.64,153.87,65.13Z"/><path class="cls-3" d="M196.11,117.6c1.18-.44,2.2-.09,2.51.86s-.12,2.42-.88,2.69a1.75,1.75,0,0,1-2.41-1.09C194.86,118.84,195.14,118,196.11,117.6Z"/><path class="cls-3" d="M190.52,115c-.24-1.28-.43-2.19.62-2.65s2,.28,2.76,1.67c.28.54-.58,2-1.38,2S191,115.28,190.52,115Z"/><path class="cls-3" d="M200.58,122c.84-.3,1.61-.39,2,.69a1.48,1.48,0,0,1-.77,2,1.45,1.45,0,0,1-2.07-1C199.34,122.82,199.62,122.27,200.58,122Z"/><path class="cls-3" d="M205.56,125.29c.71.57,1.24.78,1.35,1.12a1.38,1.38,0,0,1-.93,2c-.39.08-1.32-.52-1.31-.78A8.28,8.28,0,0,1,205.56,125.29Z"/><path class="cls-3" d="M280.14,37.14c1.65-.57,2.51-.33,2.9.82s-.68,2.69-1.85,3a2,2,0,0,1-1.05-3.86Z"/><path class="cls-3" d="M286.23,37.28c1.74,3.12,1.76,3.58.17,4.32a2,2,0,0,1-2.78-1.37C283.22,39.22,284.39,37.86,286.23,37.28Z"/><path class="cls-3" d="M262.59,37.57a2.39,2.39,0,0,1,2.68.74,1.89,1.89,0,0,1-1.07,2.44c-.89.15-2.15.21-2.7-.29C260.71,39.75,261.51,38,262.59,37.57Z"/><path class="cls-3" d="M305.68,45c-.9.18-1.82.49-2.32-.7a2.18,2.18,0,0,1,1-2.67,2.57,2.57,0,0,1,2.68.83C307.33,43.12,306.58,44.58,305.68,45Z"/><path class="cls-3" d="M300.12,40.64c.61,1.43,0,3.2-.91,3.44s-1.7-.35-2.15-1.23c-.24-.47.6-2.8,1.07-2.77A8.3,8.3,0,0,1,300.12,40.64Z"/><path class="cls-3" d="M310.07,43a5.5,5.5,0,0,1,1.68.35c1.06.54,1,1.37.07,2.07a8.53,8.53,0,0,1-1.08.73,1.75,1.75,0,0,1-2.38-.56C308,44.71,308.58,43.58,310.07,43Z"/><path class="cls-3" d="M267.76,38a1.68,1.68,0,0,1,2.3.79,2.07,2.07,0,0,1-1.13,2.48c-.74.31-2.2-.11-2.42-.69A2.5,2.5,0,0,1,267.76,38Z"/><path class="cls-3" d="M273.59,37.74c.88-.31,2.53.17,2.42.76a4,4,0,0,1-1.17,2.22c-.63.53-2-.13-2.3-.84A1.58,1.58,0,0,1,273.59,37.74Z"/><path class="cls-3" d="M290.25,41.31a1.73,1.73,0,0,1,1.05-2.43,1.55,1.55,0,0,1,2,.93,1.74,1.74,0,0,1-.77,2.17C291.42,42.41,290.6,42.17,290.25,41.31Z"/><path class="cls-3" d="M323,49.75a1.68,1.68,0,0,1-1,2.39c-.63.24-1.87-.59-2.19-1.44s.16-1.47.95-1.79C322,48.4,322.59,48.62,323,49.75Z"/><path class="cls-3" d="M294.1,59c.52,1.14-.43,1.46-1.11,1.82-.85.45-2.36,0-2.29-.67a4.72,4.72,0,0,1,1.12-2.54C292.25,57.09,293.74,58.05,294.1,59Z"/><path class="cls-3" d="M302.56,74.06c-.55.24-1.25.24-1.58-.79a1.75,1.75,0,0,1,1.07-2.21c.77-.12,1.78-.46,2.26.62C304.64,72.44,303.85,73.62,302.56,74.06Z"/><path class="cls-3" d="M299.84,70.58c-.26-.13-1-.28-1.37-.73-.51-.64.18-2.17,1-2.53a1.84,1.84,0,0,1,2.21.8C302,69.07,301.53,69.9,299.84,70.58Z"/><path class="cls-3" d="M309.34,79.21c.68-.16,1.46-.7,1.82.41A2,2,0,0,1,310,82.16c-.82.25-1.68.26-2.11-.67S308.11,79.65,309.34,79.21Z"/><path class="cls-3" d="M307.82,76c-.34.65-.52,1.55-1.06,1.89a1.38,1.38,0,0,1-2.25-.6,1.51,1.51,0,0,1,.62-2.13A2.18,2.18,0,0,1,307.82,76Z"/><path class="cls-3" d="M311.9,84.55c.23-.37.45-1.17,1-1.49a1.5,1.5,0,0,1,2.16.74,1.34,1.34,0,0,1-.86,1.89C313.38,86,312.52,86,311.9,84.55Z"/><path class="cls-3" d="M295.53,65.43a1.25,1.25,0,0,1,.83-1.76c.7-.3,2.33.35,2.33,1.06a2.19,2.19,0,0,1-.92,1.48A1.58,1.58,0,0,1,295.53,65.43Z"/></g></g></g></g></svg>